<svg width="443" height="358" viewBox="0 0 443 358" fill="none" xmlns="http://www.w3.org/2000/svg">
<path opacity="0.1" d="M53.2904 41.7354C57.3276 17.6465 78.1778 0 102.603 0H392.285C419.899 0 442.285 22.3858 442.285 50V308C442.285 335.614 419.899 358 392.285 358H59.3624C28.4471 358 4.94011 330.225 10.0502 299.735L53.2904 41.7354Z" fill="#68C9BA"/>
<path d="M410.014 136.028C435.738 165.206 405.363 193.38 351.903 194.14C245.616 187.136 221.631 93.0058 229.664 71.9012C237.697 50.7966 261.615 50.2205 297.054 93.2135C332.493 136.206 377.858 99.5557 410.014 136.028Z" stroke="white" stroke-width="1.5"/>
<ellipse cx="305.634" cy="101.15" rx="16.8481" ry="9.95569" transform="rotate(20.7184 305.634 101.15)" stroke="white" stroke-width="1.5"/>
</svg>
