<svg width="443" height="364" viewBox="0 0 443 364" fill="none" xmlns="http://www.w3.org/2000/svg">
<path opacity="0.1" d="M53.2894 47.7355C57.3267 23.6466 78.1768 6.00012 102.602 6.00012H392.284C419.898 6.00012 442.284 28.3859 442.284 56.0001V314C442.284 341.614 419.898 364 392.284 364H59.3614C28.4461 364 4.93913 336.226 10.0492 305.736L53.2894 47.7355Z" fill="#2D9CDB"/>
<ellipse cx="382.674" cy="312.031" rx="30.9248" ry="18.2737" transform="rotate(20.7184 382.674 312.031)" stroke="white" stroke-width="1.5"/>
<path d="M108.726 253.711C48.1914 265.917 33.5671 201.793 74.9576 127.69C168.954 -12.8782 317.406 28.8639 340.045 56.6597C362.685 84.4555 344.491 117.797 257.252 132.393C170.014 146.99 184.393 238.452 108.726 253.711Z" stroke="white" stroke-width="1.5"/>
</svg>
